<?xml version="1.0" encoding="UTF-8"?>
<!--
  World Map Implementation Blueprint
  ----------------------------------
  Generated from src/game/data/maps/elerion-world-config.ts on 2026-05-28
  (refreshed after the correction pass: hidden lighthouse/merchant island
  region labels, shrunk thornwood_zone east of Dawnkeep, renamed
  eastern_frontier_zone display to "Greymarsh Wilds", single Verdant River
  label on the longest segment).

  This blueprint represents the ACTUAL CURRENT IMPLEMENTATION (not an
  idealized redesign). Every region, landmark, road, river, mountain
  band, encounter zone, trigger, and player start shown here is read
  directly from the config and scaled by 0.25 (world 5120x2880 -> 1280x720).

  Use this image to compare the live config against
  docs/reference/world-map-overview.png.
-->
<svg xmlns="http://www.w3.org/2000/svg"
     viewBox="0 0 1280 920"
     width="1280" height="920"
     font-family="Trebuchet MS, sans-serif">

  <defs>
    <style>
      .frame      { fill: none; stroke: #d9b35b; stroke-width: 2; }
      .ocean      { fill: #143952; }
      .plains     { fill: #5d8a55; }
      .snow       { fill: #d8e6f0; }
      .mountain   { fill: #7c7c82; }
      .mountainHidden { fill: #6b6b72; }
      .forest     { fill: #2f5e34; }
      .forestHidden   { fill: #3f6c44; opacity: 0.55; }
      .corrupt    { fill: #5a3866; }
      .rocky      { fill: #8a7458; }
      .sea        { fill: #1d4d6e; }
      .bridge     { fill: #a7916b; }
      .sand       { fill: #d4c188; }
      .sandHidden { fill: #d4c188; opacity: 0.45; }
      .dust       { fill: #b8a472; opacity: 0.7; }
      .blight     { fill: #2a1638; }

      .road       { fill: none; stroke: #6a4d2e; stroke-linecap: round; stroke-linejoin: round; }
      .roadStone  { fill: none; stroke: #4a4a4a; stroke-linecap: round; stroke-linejoin: round; }
      .roadHidden { fill: none; stroke: #6a4d2e; stroke-linecap: round; stroke-linejoin: round; opacity: 0.45; stroke-dasharray: 4 3; }

      .landmark         { fill: #f3ebd2; stroke: #3a2406; stroke-width: 1; }
      .landmarkPort     { fill: #8fc8ff; stroke: #0a3070; stroke-width: 1; }
      .landmarkCapital  { fill: #e8d25f; stroke: #5a3a10; stroke-width: 1.4; }
      .landmarkCitadel  { fill: #6a0a0a; stroke: #2a0606; stroke-width: 1.4; }
      .landmarkFortress { fill: #4a3a4a; stroke: #1a1018; stroke-width: 1.2; }
      .landmarkGate     { fill: #b8a472; stroke: #3a2406; stroke-width: 1.2; }
      .landmarkRuin     { fill: #9a8c70; stroke: #3a2406; stroke-width: 1; }
      .landmarkShrine   { fill: #e3d6a8; stroke: #5a3a10; stroke-width: 1; }
      .landmarkIsland   { fill: #d4c188; stroke: #5a3a10; stroke-width: 0.8; }
      .landmarkHidden   { fill: #b8b3a4; stroke: #555; stroke-width: 0.8; stroke-dasharray: 2 2; opacity: 0.65; }

      .lblCanon    { fill: #e8d25f; font-size: 11px; font-weight: 700; stroke: #1a1006; stroke-width: 2.5; paint-order: stroke fill; }
      .lblRegion   { fill: #f3ebd2; font-size: 10px; font-style: italic; stroke: #1a1006; stroke-width: 2; paint-order: stroke fill; }
      .lblHidden   { fill: #b8b3a4; font-size: 9px; font-style: italic; opacity: 0.7; stroke: #000; stroke-width: 1.5; paint-order: stroke fill; }
      .lblSea      { fill: #d6d1c1; font-size: 12px; font-style: italic; letter-spacing: 2px; opacity: 0.85; stroke: #0a1a2a; stroke-width: 2; paint-order: stroke fill; }
      .lblZone     { fill: #ffb070; font-size: 8.5px; font-weight: 600; opacity: 0.75; stroke: #1a1006; stroke-width: 1.5; paint-order: stroke fill; }
      .lblHeader   { fill: #e8d25f; font-size: 14px; font-weight: 700; }

      .zoneOutline { fill: none; stroke: #ffb070; stroke-width: 1; stroke-dasharray: 3 3; opacity: 0.5; }
      .trigger     { fill: #f5d75e; stroke: #5a3a10; stroke-width: 1.5; }
      .triggerBoss { fill: #d97a7a; stroke: #6a0a0a; stroke-width: 1.5; }
      .playerStart { fill: #d97a7a; stroke: #1a1006; stroke-width: 1.5; }

      .legendText  { fill: #f3ebd2; font-size: 11px; }
      .legendBg    { fill: #14233b; stroke: #d9b35b; stroke-width: 1; }
    </style>
  </defs>

  <!-- ─── Outer ocean (background) ─────────────────────────────── -->
  <rect class="ocean" x="0" y="0" width="1280" height="720"/>

  <!-- ─── Western continent base: Verdant Fields plains ────────── -->
  <rect class="plains" x="20" y="15" width="555" height="690"/>

  <!-- ─── Frostnorth Tundra (snow band along the top) ──────────── -->
  <rect class="snow" x="20" y="15" width="555" height="55"/>

  <!-- ─── Northwind Peaks (NW sub-cluster, label HIDDEN) ──────── -->
  <rect class="mountainHidden" x="30" y="70" width="145" height="105"/>

  <!-- ─── Silverwall Mountains: top band west of pass ──────────── -->
  <rect class="mountain" x="175" y="70" width="100" height="55"/>

  <!-- ─── Silverwall Mountains: top band east of pass ──────────── -->
  <rect class="mountain" x="325" y="70" width="225" height="55"/>

  <!-- ─── Everdawn Forest ──────────────────────────────────────── -->
  <rect class="forest" x="50" y="200" width="155" height="135"/>

  <!-- ─── Lumen Grove (HIDDEN region) ──────────────────────────── -->
  <rect class="forestHidden" x="195" y="325" width="85" height="65"/>

  <!-- ─── Thornwood (HIDDEN region, corrupted forest) ─────────── -->
  <rect class="corrupt" x="30" y="575" width="230" height="135" opacity="0.85"/>

  <!-- ─── Verdant River: north half ────────────────────────────── -->
  <rect class="sea" x="350" y="0" width="20" height="260"/>
  <!-- Bridgeford bridge (walkable) -->
  <rect class="bridge" x="350" y="260" width="20" height="35"/>
  <!-- Verdant River south-upper -->
  <rect class="sea" x="350" y="295" width="20" height="215"/>
  <!-- Verdant River bend connector -->
  <rect class="sea" x="330" y="510" width="40" height="20"/>
  <!-- Verdant River south-lower -->
  <rect class="sea" x="330" y="530" width="20" height="190"/>

  <!-- ─── Central Sea is the ocean band 575-800 ────────────────── -->
  <!-- (Already painted by outer ocean rect; add label only) -->

  <!-- ─── Eastern continent base: Greymarsh Wilds (rocky) ──────── -->
  <rect class="rocky" x="800" y="15" width="460" height="690"/>

  <!-- ─── Eastern Dustlands (HIDDEN) ───────────────────────────── -->
  <rect class="dust" x="800" y="425" width="175" height="280"/>

  <!-- ─── Ironflow River N ─────────────────────────────────────── -->
  <rect class="sea" x="975" y="15" width="25" height="285"/>
  <!-- Iron Bridge (walkable, HIDDEN label) -->
  <rect class="bridge" x="975" y="300" width="25" height="30"/>
  <!-- Ironflow River S -->
  <rect class="sea" x="975" y="330" width="25" height="375"/>

  <!-- ─── Twilight Marches (HIDDEN dust east of river) ─────────── -->
  <rect class="dust" x="1000" y="15" width="260" height="690" opacity="0.55"/>

  <!-- ─── Twilight Grove (corrupted forest) ────────────────────── -->
  <rect class="corrupt" x="1010" y="450" width="135" height="115"/>

  <!-- ─── Black Reach (corruption belt NE, HIDDEN label) ───────── -->
  <rect class="blight" x="1155" y="15" width="105" height="275"/>

  <!-- ─── Encounter zone outlines (dashed orange) ──────────────── -->
  <rect class="zoneOutline" x="80" y="570" width="185" height="145"/>    <!-- thornwood_zone (shrunk east of Dawnkeep) -->
  <rect class="zoneOutline" x="265" y="70"  width="70"  height="110"/>    <!-- mountain_pass_zone -->
  <rect class="zoneOutline" x="45"  y="195" width="165" height="140"/>    <!-- western_forest_zone -->
  <rect class="zoneOutline" x="20"  y="15"  width="555" height="55"/>     <!-- northern_tundra_zone -->
  <rect class="zoneOutline" x="800" y="350" width="175" height="355"/>    <!-- eastern_frontier_zone -->
  <rect class="zoneOutline" x="1000" y="15" width="155" height="690"/>    <!-- eastern_warfields_zone -->
  <rect class="zoneOutline" x="1155" y="15" width="105" height="285"/>    <!-- blightlands_zone -->

  <!-- ─── Roads (brown) ────────────────────────────────────────── -->
  <!-- West main road (Dawnkeep -> Eldric -> Bridgeford -> Harborwatch) -->
  <polyline class="road" stroke-width="2.5"
    points="50,695 85,670 130,645 170,615 210,580 230,535 205,490 165,455 125,430 95,390 80,345 95,300 130,270 170,247 215,230 270,220
            310,250 345,270 370,275 410,300 455,345 500,395 530,455"/>

  <!-- North branch through Northwind Pass to Frostnorth -->
  <polyline class="road" stroke-width="2"
    points="270,220 280,165 295,125 295,95 295,50"/>

  <!-- Western shrine branch (HIDDEN landmark dest) -->
  <polyline class="roadHidden" stroke-width="2"
    points="105,295 95,230 95,180"/>

  <!-- East main road (Dreadshore -> Riverrun -> Warfortress) -->
  <polyline class="road" stroke-width="2.5"
    points="830,380 880,365 925,345 960,320 988,315 1013,315 1050,275 1070,200"/>

  <!-- East ruins branch (HIDDEN landmark dest) -->
  <polyline class="roadHidden" stroke-width="2"
    points="1015,330 1055,390 1095,455"/>

  <!-- Citadel road (stone) -->
  <polyline class="roadStone" stroke-width="2.5"
    points="1070,200 1130,135 1200,80"/>

  <!-- ─── Landmarks (visible canonical) ───────────────────────── -->
  <!-- Dawnkeep (village) -->
  <rect class="landmark" x="35" y="685" width="32" height="27" rx="3"/>
  <text class="lblCanon" x="51" y="734" text-anchor="middle">Dawnkeep</text>

  <!-- Highland Ruins -->
  <rect class="landmarkRuin" x="35" y="415" width="27" height="22" rx="2"/>
  <text class="lblCanon" x="48" y="409" text-anchor="middle">Highland Ruins</text>

  <!-- Eldric (capital) -->
  <rect class="landmarkCapital" x="250" y="180" width="45" height="40" rx="3"/>
  <text class="lblCanon" x="272" y="174" text-anchor="middle">Eldric</text>

  <!-- Light's Sanctuary (shrine) -->
  <rect class="landmarkShrine" x="220" y="610" width="32" height="27" rx="3"/>
  <text class="lblCanon" x="236" y="652" text-anchor="middle">Light&#8217;s Sanctuary</text>

  <!-- Riverdale (village at the bridge) -->
  <rect class="landmark" x="347" y="255" width="50" height="40" rx="3"/>
  <text class="lblCanon" x="372" y="249" text-anchor="middle">Riverdale</text>

  <!-- Stonegate (gate) -->
  <rect class="landmarkGate" x="275" y="75" width="50" height="50" rx="3"/>
  <text class="lblCanon" x="300" y="138" text-anchor="middle">Stonegate</text>

  <!-- Harborwatch (port) -->
  <rect class="landmarkPort" x="520" y="450" width="35" height="30" rx="3"/>
  <text class="lblCanon" x="537" y="495" text-anchor="middle">Harborwatch</text>

  <!-- ─── Hidden landmarks (faded, dashed) ─────────────────────── -->
  <!-- Forest Shrine (HIDDEN, in Everdawn Forest) -->
  <rect class="landmarkHidden" x="80" y="165" width="27" height="22" rx="2"/>
  <text class="lblHidden" x="93" y="160" text-anchor="middle">(forest_shrine)</text>

  <!-- ─── Central sea islands ───────────────────────────────────── -->
  <!-- Whisper Isle (visible canonical) -->
  <ellipse class="landmarkIsland" cx="633" cy="111" rx="20" ry="13"/>
  <text class="lblCanon" x="633" y="100" text-anchor="middle">Whisper Isle</text>

  <!-- Lighthouse Isle (both landmark + region labels now hidden) -->
  <ellipse class="landmarkHidden" cx="692" cy="226" rx="18" ry="13"/>
  <text class="lblHidden" x="692" y="218" text-anchor="middle">(lighthouse_isle)</text>

  <!-- Merchant Atoll (both landmark + region labels now hidden) -->
  <ellipse class="landmarkHidden" cx="645" cy="350" rx="25" ry="18"/>
  <text class="lblHidden" x="645" y="342" text-anchor="middle">(merchant_atoll)</text>

  <!-- Saint's Isle (visible canonical) -->
  <ellipse class="landmarkIsland" cx="710" cy="473" rx="20" ry="14"/>
  <text class="lblCanon" x="710" y="463" text-anchor="middle">Saint&#8217;s Isle</text>

  <!-- Tempest Isles (visible canonical) -->
  <ellipse class="landmarkIsland" cx="640" cy="588" rx="18" ry="13"/>
  <text class="lblCanon" x="640" y="610" text-anchor="middle">Tempest Isles</text>

  <!-- ─── Eastern continent landmarks ──────────────────────────── -->
  <!-- Dreadshore (port) -->
  <rect class="landmarkPort" x="820" y="375" width="35" height="27" rx="3"/>
  <text class="lblCanon" x="838" y="418" text-anchor="middle">Dreadshore</text>

  <!-- Frontier Town (HIDDEN) -->
  <rect class="landmarkHidden" x="895" y="345" width="30" height="25" rx="3"/>
  <text class="lblHidden" x="910" y="340" text-anchor="middle">(frontier_town)</text>

  <!-- Riverrun (gate kind, but a city) -->
  <rect class="landmarkGate" x="950" y="295" width="37" height="30" rx="3"/>
  <text class="lblCanon" x="970" y="290" text-anchor="middle">Riverrun</text>

  <!-- Ancient Ruins (HIDDEN) -->
  <rect class="landmarkHidden" x="1080" y="445" width="32" height="25" rx="2"/>
  <text class="lblHidden" x="1096" y="440" text-anchor="middle">(ancient_ruins)</text>

  <!-- Warfortress -->
  <rect class="landmarkFortress" x="1055" y="180" width="37" height="32" rx="2"/>
  <text class="lblCanon" x="1074" y="174" text-anchor="middle">Warfortress</text>

  <!-- Black Citadel -->
  <rect class="landmarkCitadel" x="1190" y="70" width="42" height="37" rx="3"/>
  <text class="lblCanon" x="1211" y="64" text-anchor="middle">Black Citadel</text>

  <!-- ─── Region labels (italic) ────────────────────────────────── -->
  <text class="lblRegion" x="280" y="50"  text-anchor="middle">Frostnorth Tundra</text>
  <text class="lblRegion" x="450" y="100" text-anchor="middle">Silverwall Mountains</text>
  <text class="lblRegion" x="127" y="280" text-anchor="middle">Everdawn Forest</text>
  <text class="lblRegion" x="380" y="125" text-anchor="middle">Verdant Fields</text>
  <text class="lblRegion" x="362" y="245" text-anchor="middle" font-size="8">Verdant River</text>
  <text class="lblRegion" x="365" y="295" text-anchor="middle" font-size="7" fill="#a7916b" stroke="none">Bridgeford</text>
  <text class="lblSea"    x="687" y="380" text-anchor="middle">THE  CENTRAL  SEA</text>
  <text class="lblRegion" x="900" y="550" text-anchor="middle">Greymarsh Wilds</text>
  <text class="lblRegion" x="1080" y="540" text-anchor="middle">Twilight Grove</text>

  <!-- ─── Hidden region labels (faint) ─────────────────────────── -->
  <text class="lblHidden" x="100" y="135" text-anchor="middle">(northwind_peaks)</text>
  <text class="lblHidden" x="238" y="360" text-anchor="middle">(lumen_grove)</text>
  <text class="lblHidden" x="145" y="645" text-anchor="middle">(thornwood)</text>
  <text class="lblHidden" x="890" y="580" text-anchor="middle">(eastern_dustlands)</text>
  <text class="lblHidden" x="1130" y="370" text-anchor="middle">(twilight_marches)</text>
  <text class="lblHidden" x="1207" y="155" text-anchor="middle">(black_reach)</text>
  <text class="lblHidden" x="987" y="600" text-anchor="middle" font-size="8">(ironflow_river)</text>

  <!-- ─── Encounter zone labels (orange) ───────────────────────── -->
  <text class="lblZone" x="300" y="180" text-anchor="middle">[Northwind Pass zone]</text>
  <text class="lblZone" x="900" y="370" text-anchor="middle">[Greymarsh Wilds zone]</text>
  <text class="lblZone" x="1075" y="690" text-anchor="middle">[Twilight Grove zone]</text>
  <text class="lblZone" x="1207" y="295" text-anchor="middle">[Black Reach zone]</text>

  <!-- ─── Triggers (interactive points) ────────────────────────── -->
  <!-- lumen_town_entrance: south gate of Eldric -->
  <circle class="trigger" cx="278" cy="232" r="5"/>
  <text class="lblCanon" x="278" y="241" font-size="8" text-anchor="middle">[T]</text>

  <!-- mountain_pass_boss: Shadecaster Veyr (flag-gated) -->
  <circle class="triggerBoss" cx="302" cy="106" r="6"/>
  <text class="lblCanon" x="302" y="118" font-size="8" text-anchor="middle">[Boss]</text>

  <!-- east_port_entrance: Dreadshore TownScene -->
  <circle class="trigger" cx="837" cy="389" r="5"/>
  <text class="lblCanon" x="837" y="398" font-size="8" text-anchor="middle">[T]</text>

  <!-- ─── Sea routes (planned ferry placeholders, no triggers yet) -->
  <line x1="537" y1="465" x2="838" y2="385" stroke="#8fc8ff" stroke-width="1" stroke-dasharray="6 4" opacity="0.55"/>
  <text x="687" y="425" text-anchor="middle" fill="#8fc8ff" font-size="9" opacity="0.7" font-style="italic">(planned sea route — no trigger yet)</text>

  <!-- ─── Player start (red marker) ────────────────────────────── -->
  <circle class="playerStart" cx="55" cy="685" r="5"/>
  <text x="55" y="673" text-anchor="middle" fill="#d97a7a" font-size="9" font-weight="700" stroke="#1a1006" stroke-width="1.5" paint-order="stroke fill">▼ START</text>

  <!-- ─── Map frame ────────────────────────────────────────────── -->
  <rect class="frame" x="0" y="0" width="1280" height="720"/>

  <!-- ─── Title ────────────────────────────────────────────────── -->
  <text x="640" y="745" text-anchor="middle" fill="#e8d25f" font-size="16" font-weight="700">
    WORLD MAP — CURRENT IMPLEMENTATION BLUEPRINT
  </text>
  <text x="640" y="763" text-anchor="middle" fill="#d6d1c1" font-size="11" font-style="italic">
    Generated from elerion-world-config.ts · world space 5120×2880 scaled ×0.25 · 2026-05-28
  </text>

  <!-- ─── Legend ───────────────────────────────────────────────── -->
  <rect class="legendBg" x="20" y="775" width="1240" height="135"/>
  <text class="lblHeader" x="35" y="795">LEGEND</text>

  <!-- Terrain swatches -->
  <g transform="translate(35,805)">
    <rect class="plains"   x="0"   y="0" width="18" height="12"/><text class="legendText" x="22"  y="10">Plains (Verdant Fields)</text>
    <rect class="snow"     x="180" y="0" width="18" height="12"/><text class="legendText" x="202" y="10">Snow (Frostnorth Tundra)</text>
    <rect class="mountain" x="360" y="0" width="18" height="12"/><text class="legendText" x="382" y="10">Mountain (Silverwall)</text>
    <rect class="forest"   x="540" y="0" width="18" height="12"/><text class="legendText" x="562" y="10">Forest (Everdawn)</text>
    <rect class="corrupt"  x="720" y="0" width="18" height="12"/><text class="legendText" x="742" y="10">Corrupted forest</text>
    <rect class="sea"      x="880" y="0" width="18" height="12"/><text class="legendText" x="902" y="10">Sea / River</text>
    <rect class="bridge"   x="1000" y="0" width="18" height="12"/><text class="legendText" x="1022" y="10">Bridge (walkable)</text>

    <rect class="rocky"    x="0"   y="22" width="18" height="12"/><text class="legendText" x="22"  y="32">Rocky base (Greymarsh)</text>
    <rect class="dust"     x="180" y="22" width="18" height="12"/><text class="legendText" x="202" y="32">Dust (hidden regions)</text>
    <rect class="blight"   x="360" y="22" width="18" height="12"/><text class="legendText" x="382" y="32">Blight (Black Reach)</text>
    <rect class="sand"     x="540" y="22" width="18" height="12"/><text class="legendText" x="562" y="32">Island sand</text>
    <line x1="720" y1="28" x2="738" y2="28" class="road" stroke-width="3"/><text class="legendText" x="742" y="32">Road (dirt)</text>
    <line x1="880" y1="28" x2="898" y2="28" class="roadStone" stroke-width="3"/><text class="legendText" x="902" y="32">Road (stone, Citadel)</text>
    <line x1="1000" y1="28" x2="1018" y2="28" stroke="#8fc8ff" stroke-width="2" stroke-dasharray="4 3" opacity="0.7"/><text class="legendText" x="1022" y="32">Planned sea route</text>
  </g>

  <!-- Markers -->
  <g transform="translate(35,855)">
    <rect class="landmarkCapital" x="0"  y="0"  width="12" height="10" rx="2"/><text class="legendText" x="18" y="10">Capital</text>
    <rect class="landmark"        x="80" y="0"  width="12" height="10" rx="2"/><text class="legendText" x="98" y="10">Village / town</text>
    <rect class="landmarkPort"    x="200" y="0" width="12" height="10" rx="2"/><text class="legendText" x="218" y="10">Port</text>
    <rect class="landmarkGate"    x="290" y="0" width="12" height="10" rx="2"/><text class="legendText" x="308" y="10">Gate / fortified crossing</text>
    <rect class="landmarkFortress" x="450" y="0" width="12" height="10" rx="2"/><text class="legendText" x="468" y="10">Fortress</text>
    <rect class="landmarkCitadel" x="540" y="0" width="12" height="10" rx="2"/><text class="legendText" x="558" y="10">Citadel</text>
    <rect class="landmarkRuin"    x="620" y="0" width="12" height="10" rx="2"/><text class="legendText" x="638" y="10">Ruin</text>
    <rect class="landmarkShrine"  x="700" y="0" width="12" height="10" rx="2"/><text class="legendText" x="718" y="10">Shrine</text>
    <ellipse class="landmarkIsland" cx="800" cy="5" rx="7" ry="5"/><text class="legendText" x="812" y="10">Island (canonical)</text>
    <rect class="landmarkHidden"  x="930" y="0" width="12" height="10" rx="2"/><text class="legendText" x="948" y="10">Hidden / reserved (label suppressed)</text>

    <circle class="trigger"       cx="6"   cy="30" r="5"/><text class="legendText" x="18" y="34">Trigger (scene transition)</text>
    <circle class="triggerBoss"   cx="200" cy="30" r="5"/><text class="legendText" x="212" y="34">Trigger (scripted boss, flag-gated)</text>
    <circle class="playerStart"   cx="430" cy="30" r="5"/><text class="legendText" x="442" y="34">Player start</text>
    <rect class="zoneOutline" x="600" y="25" width="18" height="10"/><text class="legendText" x="622" y="34">Encounter zone outline</text>
    <text class="lblCanon" x="830" y="34">CANON LABEL</text>
    <text class="lblHidden" x="940" y="34">(hidden label)</text>
  </g>
</svg>
